HIERARCHY
ROOT Hips
{
    OFFSET 13.948945999145508 93.83965682983398 -18.233760833740234
    CHANNELS 6 Xposition Yposition Zposition Zrotation Xrotation Yrotation
    JOINT RightUpLeg
    {
        OFFSET -13.948945999145508 0.0 0.0
        CHANNELS 3 Zrotation Xrotation Yrotation
        JOINT RightLeg
        {
            OFFSET 0.0 -48.255252838134766 0.0
            CHANNELS 3 Zrotation Xrotation Yrotation
            JOINT RightFoot
            {
                OFFSET 0.0 -45.58440399169922 0.0
                CHANNELS 3 Zrotation Xrotation Yrotation
                End Site
                {
                    OFFSET 0.0 0.0 18.233760833740234
                }
            }
        }
    }
    JOINT LeftUpLeg
    {
        OFFSET 13.948945999145508 0.0 0.0
        CHANNELS 3 Zrotation Xrotation Yrotation
        JOINT LeftLeg
        {
            OFFSET 0.0 -48.255252838134766 0.0
            CHANNELS 3 Zrotation Xrotation Yrotation
            JOINT LeftFoot
            {
                OFFSET 0.0 -45.58440399169922 0.0
                CHANNELS 3 Zrotation Xrotation Yrotation
                End Site
                {
                    OFFSET 0.0 0.0 18.233760833740234
                }
            }
        }
    }
    JOINT Spine
    {
        OFFSET 0.0 25.9769287109375 0.0
        CHANNELS 3 Zrotation Xrotation Yrotation
        JOINT Spine3
        {
            OFFSET 0.0 24.63811492919922 0.0
            CHANNELS 3 Zrotation Xrotation Yrotation
            JOINT Neck
            {
                OFFSET 0.0 10.633310317993164 0.0
                CHANNELS 3 Zrotation Xrotation Yrotation
                End Site
                {
                    OFFSET 0.0 4.253324031829834 0.0
                }
            }
            JOINT LeftArm
            {
                OFFSET 14.366086959838867 0.0 0.0
                CHANNELS 3 Zrotation Xrotation Yrotation
                JOINT LeftForeArm
                {
                    OFFSET 29.535167694091797 0.0 0.0
                    CHANNELS 3 Zrotation Xrotation Yrotation
                    JOINT LeftHand
                    {
                        OFFSET 25.120838165283203 0.0 0.0
                        CHANNELS 3 Zrotation Xrotation Yrotation
                        End Site
                        {
                            OFFSET 10.048336029052734 0.0 0.0
                        }
                    }
                }
            }
            JOINT RightArm
            {
                OFFSET -14.366086959838867 0.0 0.0
                CHANNELS 3 Zrotation Xrotation Yrotation
                JOINT RightForeArm
                {
                    OFFSET -29.535167694091797 0.0 0.0
                    CHANNELS 3 Zrotation Xrotation Yrotation
                    JOINT RightHand
                    {
                        OFFSET -25.120838165283203 0.0 0.0
                        CHANNELS 3 Zrotation Xrotation Yrotation
                        End Site
                        {
                            OFFSET -10.048336029052734 0.0 0.0
                        }
                    }
                }
            }
        }
    }
}
MOTION
Frames: 12
Frame Time: 0.03333333333333333
-7.582266698591411e-05 95.60861206054688 -0.00043007201747968793 -21.070466060097086 7.572959779772452 -92.1805155738098 0.05977996297268691 9.485059321701172 -0.8161292527521041 1.1987400428656163 47.468353266744224 -4.456434457977853 -3.1805546814635168e-15 3.1805546814635168e-15 7.951386703658792e-16 -1.8135914677394624 15.769506930285491 -0.8252515849687981 -0.28222307352658477 17.671805266401748 -0.8074912316923593 -3.975693351829396e-16 3.620782510119271e-33 -1.0436195048552165e-15 -1.4985342559874404 30.4361874347483 -1.7029210436853466 -1.3392815728217756e-06 1.0133264450943722e-06 -12.591825933236064 0.536049944499441 7.963999767847412 170.71906706893122 125.76230251391617 -19.66962025891784 -165.90080389416175 -3.96161523348109e-06 3.3473170688516186e-06 28.17024708790836 0.0 0.0 1.5902773407317584e-15 -116.16375097284192 -37.46520193842793 168.79055434274522 -4.921173838149281e-06 -3.3679053181635294e-06 -22.281183656633683 0.0 0.0 0.0
-0.00011691813415382057 95.608642578125 -0.0004991492605768144 -20.670217061505717 7.355077830416174 -91.3173191508349 -0.40316905721996893 7.687997273845168 -0.5992623624262623 0.8849045512875975 47.183102398465735 -3.872412966917256 -3.1805546814635168e-15 8.827812596100317e-32 -3.1805546814635168e-15 -1.1288612343758453 16.57675337270971 -1.0579531180202508 -0.4827260488359588 17.164687105576313 -0.9117678834058983 -3.9756933518293955e-16 1.987846675914698e-15 -2.1866313435061676e-15 -0.5787601986622156 29.81104858312944 -2.12209493021813 -1.0932971947066344e-06 9.836216261435042e-07 -14.02125691929423 -0.42631815582454563 7.892823141756517 171.31050127623337 126.81625224011556 -19.461212259588194 -164.85204390154146 -1.916518461767073e-06 -1.1330292075475608e-06 32.666076886043854 6.3611093629270335e-15 0.0 0.0 -116.72073453704547 -46.836391673275806 169.74249662256662 -1.747461396372345e-07 -1.1500031369047808e-06 -20.090993596798636 7.951386703658792e-15 3.1805546814635164e-15 -6.3611093629270335e-15
-9.09351947484538e-05 95.60861206054688 -0.0005079378606751561 -20.29476945369488 7.477702175733736 -91.15937420566895 -0.40976570511139376 6.294909364546465 -0.475555604810365 -0.8472499291037966 46.242402707403194 -2.4615229891217267 -3.1805546814635168e-15 4.770832022195275e-15 1.3241718894150476e-31 -0.7102015419477244 17.13324221578497 -1.1747954354319148 -0.8850143546000391 16.758522116707006 -0.8479402980167169 -3.6207825101192705e-32 1.987846675914698e-15 2.087239009710433e-15 0.16842898388241195 29.574379555586518 -2.407050016100197 1.2469472733763058e-06 -2.7383867739441527e-07 -14.996253377512778 -1.9348825729921324 7.081443318775467 173.77086186560797 127.5391412783154 -18.361035935111914 -163.90763484543427 2.570412062092951e-06 -2.957652930961069e-06 34.96826321651518 0.0 0.0 7.951386703658792e-16 -114.57389651373127 -46.399515185253605 172.7137687215772 -5.115081490364952e-06 2.7655066175717665e-06 -20.510608586233698 1.5902773407317584e-15 0.0 0.0
-0.00010057435429189354 95.60865020751953 -0.0005668029189109802 -19.90270151790349 7.559971444543549 -90.86960503425946 -0.1731644909430506 5.278416023255578 -0.4170287421730911 -1.651024620666695 43.60382062014191 -1.9282290278513985 -3.1805546814635168e-15 -1.5902773407317584e-15 -1.987846675914698e-15 -0.25266975458395613 17.5453001848787 -1.325394993887142 -1.0069705050284465 16.491520127606965 -0.907908207892984 -3.9756933518293955e-16 1.5902773407317584e-15 -3.0811623476677818e-15 0.982228208842876 28.784867436287723 -2.718029593459942 -2.415382987975083e-07 1.8569704095029993e-07 -15.876060491889952 -3.0751861051504954 6.88822742474801 177.2982786462102 127.31240634311764 -16.830127965622623 -163.81183121743496 2.4391810926661587e-06 -2.587224049648046e-06 37.3919115003743 6.3611093629270335e-15 -8.827812596100317e-32 -1.5902773407317584e-15 -111.88145406277103 -44.525583497124586 175.56796674129626 -1.7535305925601039e-07 4.737009340106245e-06 -19.654012951441054 -6.361109362927033e-15 0.0 0.0
-0.00010169935558224097 95.6086654663086 -0.0006143574719317257 -19.38468829136877 8.066004756640272 -91.26244371035209 -0.04850385128841237 4.685376633825755 -0.35089064786615576 -1.5597587954186765 39.007147292556034 -1.6671447859834845 0.0 0.0 -1.5902773407317582e-15 0.5784066338827349 18.064675952101013 -1.508001265289893 -1.0635433777635193 16.226858727909516 -0.9978752593474868 -7.951386703658794e-16 -1.5902773407317588e-15 2.4848083448933734e-15 1.8684270973969015 28.17731531529028 -2.9122579343474477 9.656089802688841e-09 4.064599086457726e-07 -16.73869910126561 -3.2394056645720544 6.711770788046467 179.28119345726972 127.69678639191257 -16.397710803981038 -163.39828646615473 -2.5247548464770876e-07 -4.254947589533463e-06 38.88547487579696 4.4139062980501586e-32 6.3611093629270335e-15 -7.951386703658792e-16 -110.07019265836819 -40.1729052512809 177.75412670440954 1.782454835499437e-06 -1.5914622403054227e-06 -19.46764808819849 -3.1805546814635164e-15 -3.1805546814635164e-15 -8.827812596100317e-32
-0.00012339642853476107 95.60858917236328 -0.0006398713449016213 -18.684733751025238 8.288418808010393 -91.98725938064325 -0.005280727200659503 3.7678110978603057 -0.2831888473406858 -1.6240901129274423 35.57256570871027 -1.5063529680764605 -7.951386703658791e-16 -7.951386703658791e-16 -3.776908684237925e-15 0.3258078905327367 18.439785645425225 -1.4441533813790584 -0.9038958004271007 15.651754838990941 -0.927825239202568 2.3854160110976368e-15 5.172546443027529e-32 2.4848083448933718e-15 1.77979887916886 27.384599487872425 -2.7755400200596334 -8.191520157764231e-07 7.40265711272279e-08 -16.981737840687384 -3.1780235419575393 6.966635368631324 -179.1498924648531 128.07876574343177 -16.379554634984196 -163.56743633301647 -8.97887803971823e-08 3.1030393228156645e-07 40.578875861798096 1.4345195468663017e-31 6.3611093629270335e-15 -2.5842006786891076e-15 -108.90654926227423 -41.2970150450779 178.72997919061368 3.284300046379869e-08 -3.311748214966188e-06 -18.59492597947277 0.0 0.0 0.0
-0.00011671563697746024 95.6085433959961 -0.0006410295027308166 -18.03351897253662 8.20170662079127 -92.6378796483834 -0.008582347806115673 3.400952297726601 -0.26329571250071626 -1.897530413804745 31.53190299247648 -1.2758628203382039 1.5902773407317584e-15 7.951386703658791e-16 -3.975693351829396e-15 0.29265531784240617 18.46262210363296 -1.4754596498609256 -0.6994788277258113 15.989919650033602 -1.027902134249838 -3.1805546814635168e-15 1.5902773407317584e-15 -2.9817700138720468e-15 1.2255300643340088 26.387803891529746 -2.489917072124027 -5.649530418651285e-07 1.4901675186702905e-06 -17.28374887392689 -2.8695104712680575 7.407509518571744 -178.65011653346122 127.6402597544971 -15.576949324758514 -163.99405760665843 -2.934245307406038e-06 -3.2538307010726296e-06 41.138350505589834 -6.3611093629270335e-15 -6.620859447075238e-32 1.1927080055488188e-15 -108.15246534623432 -44.94254447192318 179.69778993028078 6.663185114361084e-07 1.2463713537527944e-06 -17.886239917961266 0.0 0.0 0.0
-0.00019397884898353368 95.6085433959961 -0.0006931571988388896 -17.830465308469282 8.285365526120971 -92.65733807325987 0.44304018540874507 3.791985745896804 -0.31952292418660966 -2.10982499132469 27.393852815492007 -1.2054125871808563 1.0069223742426923e-31 -1.5902773407317584e-15 7.255640367088647e-15 0.2898528410993418 18.843725715652578 -1.4853215865420177 -0.14766129812620288 16.759623642026888 -1.2166783233264296 -1.5902773407317584e-15 1.5902773407317584e-15 -5.764755360152624e-15 1.3124048225785352 25.801078449675018 -2.4517142186283354 -1.9424714909211998e-07 1.438416691597762e-07 -17.465588989778002 -2.8321093788789558 7.85635639657433 -179.67631547170325 127.02450397492251 -15.877675716329398 -164.15135217723056 8.477066247201839e-07 7.507300788032131e-07 41.36807609990256 0.0 0.0 0.0 -108.11762304260976 -44.999888327867716 -179.52726495108988 3.145741345337939e-07 -6.178514258165032e-06 -17.751220871566588 6.3611093629270335e-15 -3.180554681463516e-15 1.2722218725854067e-14
-0.0003120403562206775 95.60858917236328 -0.0007424254436045885 -17.892163734768296 8.387451158782497 -92.49092144845129 1.242523323680514 4.615922253015276 -0.4544064657415609 -1.9249343145844098 24.14943364345669 -1.4791658650274082 -1.987846675914698e-15 -9.914047349136098e-32 5.715059193254757e-15 0.39508509533877795 18.8935337277163 -1.528249761329072 0.024848809325708116 18.670431477650236 -1.4428917497450748 -1.1034765745125397e-32 -7.951386703658791e-16 -1.5902773407317582e-15 1.9136636979023525 25.88971663601273 -2.7316507478040486 3.8981412672602085e-07 4.1262583660773565e-07 -17.473565420261572 -3.262756939106333 7.643515767590222 179.94969104377225 125.92107100473213 -15.691175852631837 -164.40106216791207 4.042745990065655e-07 2.816421744194427e-06 41.110400595749084 0.0 0.0 5.963540027744093e-16 -110.42868437611475 -45.618073974730656 178.92961111054245 -2.16058057475965e-06 -1.6408133291861614e-07 -17.898881601453212 0.0 6.3611093629270335e-15 0.0
-0.0002669781679287553 95.60872650146484 -0.0007472950383089483 -17.802337096588523 8.40764494932362 -92.67459905149377 1.5355031138231467 5.28792973923478 -0.5670955334057803 -1.6705258268075571 21.4067931739081 -1.597176243512396 7.95138670365879e-16 2.0517767557342535e-32 2.9569219304231126e-15 -0.0021650640657537783 18.48630585175886 -1.439477714945977 0.1279467828568129 20.87417966951857 -1.5861868335886236 0.0 0.0 3.975693351829396e-16 2.454864226259293 25.79505846831995 -3.056469261891465 5.016970010761037e-07 -2.0135763107191223e-07 -17.416807794289983 -3.64737654025955 7.725785867563761 179.8150556853204 124.80549483279997 -14.978030082149557 -165.03351690318038 6.28711571910669e-06 2.7836443987361386e-08 40.15394333796425 0.0 0.0 3.1805546814635168e-15 -112.52580392523556 -46.6079445156222 177.04125922007614 -6.009577087521776e-07 -2.0247946608380084e-06 -17.327259460097483 -3.1805546814635168e-15 0.0 0.0
-0.00015172881830949336 95.60877990722656 -0.0007152642938308418 -17.939570443314224 8.382445913018064 -92.98644485739597 1.7799692432790013 6.231016040459578 -0.7358086469847672 -1.7470263222952012 19.70672225850416 -1.659115007865176 8.945310041616142e-16 -9.939233379573487e-17 2.9320738469741797e-15 -0.2626324400074549 17.94458001163062 -1.4383083981974358 0.30030879420867096 23.41085041403131 -1.891139182217414 0.0 0.0 4.373262687012335e-15 2.961225651205585 25.9788434455484 -3.4735329558493446 5.736124274297562e-07 -1.7367583247889636e-07 -16.94133314978761 -4.044730076907919 7.805541563420378 178.60387926667067 124.11114961324219 -14.968730567157209 -165.4461726402667 6.694624328447384e-06 -1.1324173635040702e-07 38.57413066977379 0.0 0.0 -1.5902773407317584e-15 -114.19328788457723 -46.690586632974 175.27167180350838 1.2309888625461607e-06 5.481162724998352e-06 -17.341772526000934 0.0 -3.1805546814635164e-15 0.0
-0.00011740298941731453 95.60877990722656 -0.0007028562249615788 -18.59937849038188 8.613251804657159 -93.68971405186491 2.226611549034592 8.029239291395134 -1.0531770897443082 -2.0351298229724 18.631094139834868 -1.7135649616643798 5.963540027744094e-16 -1.31899934297202e-32 -2.53450451179124e-15 -0.6745094601333287 16.33533578437184 -1.2854030384132356 0.9144231225139362 29.184063285237706 -2.5952613483730085 0.0 0.0 4.770832022195277e-15 3.2221774769769715 27.404155893300445 -3.918935400083273 6.637121972091401e-07 1.1113185156366101e-07 -15.189685262266464 -3.9107307455495803 6.613240642469191 179.17437623410265 124.4077665345459 -17.256574841538804 -164.54425726532844 -6.902593395675575e-07 -2.3656474026904907e-06 34.97252318123653 6.3611093629270335e-15 -8.827812596100317e-32 -1.5902773407317584e-15 -115.25739175257976 -35.80834745576944 174.19143777930498 -9.97373565176284e-08 -6.1554061235269475e-06 -20.40019609806013 -3.1805546814635168e-15 3.1805546814635168e-15 8.827812596100317e-32
